# xmcd CD database file
#
# Track frame offsets:
#	150
#	14990
#	27894
#	51038
#	60102
#	72638
#	87158
#	99214
#	109078
#	120350
#	132454
#	143710
#	152342
#	168142
#	181910
#	194430
#	212038
#
# Disc length: 3120 seconds
#
# Revision: 3
# Processed by: cddbd v1.5.2PL0 Copyright (c) Steve Scherf et al.
# Submitted via: CDex 1.74
#
DISCID=df0c2e11
DTITLE=40 Watt Bulb - Shovel's Length Short
DYEAR=2004
DGENRE=Country
TTITLE0=Laramie
TTITLE1=Uncle
TTITLE2=Shovel's Length Short
TTITLE3=Goinn' Out West
TTITLE4=Good Gravy
TTITLE5=The Butchers' Union
TTITLE6=Cold Ground
TTITLE7=Piss And Vinegar
TTITLE8=Baby Blue
TTITLE9=Three Monkey Rush
TTITLE10=Tattoo
TTITLE11=Jesus Loves My Shotgun
TTITLE12=Tie Me Up Or Tie Me Down
TTITLE13=Shoes
TTITLE14=Bastard Son Of Lee Marvin
TTITLE15=Lenore
TTITLE16=When I Set This Hammer Dwon
EXTD=YEAR: 2004
EXTT0=
EXTT1=
EXTT2=
EXTT3=
EXTT4=
EXTT5=
EXTT6=
EXTT7=
EXTT8=
EXTT9=
EXTT10=
EXTT11=
EXTT12=
EXTT13=
EXTT14=
EXTT15=
EXTT16=
PLAYORDER=
